<svg width="200" height="44" viewBox="0 0 200 44" fill="none" xmlns="http://www.w3.org/2000/svg">
<path d="M82.1586 9.83125C81.7043 9.83125 81.25 9.83125 80.7957 9.83125C80.3414 9.83125 79.9009 9.83125 79.4604 9.83125L72.4532 28.1875L64.799 9.72125C63.9868 9.74875 63.0644 9.77625 62.0044 9.80375C60.9582 9.83125 59.8844 9.845 58.7968 9.845C58.2186 9.845 57.6129 9.83125 57.0072 9.80375C56.4014 9.77625 55.8921 9.74875 55.4929 9.72125V10.4775C56.2776 10.505 56.8833 10.6013 57.2963 10.7663C57.7093 10.9313 57.9984 11.2338 58.136 11.6738C58.2737 12.1138 58.3425 12.8013 58.3425 13.7363V30.8138C58.3425 32.0238 58.2737 32.9863 58.136 33.6738C57.9984 34.375 57.723 34.87 57.3238 35.1725C56.9246 35.475 56.3051 35.695 55.4929 35.8188V36.575C55.8921 36.52 56.4014 36.4925 57.0072 36.4788C57.6129 36.465 58.2049 36.465 58.7968 36.465C59.4851 36.465 60.2148 36.465 60.9995 36.4788C61.7842 36.4925 62.4174 36.52 62.8992 36.575V35.8188C61.7842 35.695 60.9719 35.475 60.4488 35.1588C59.9257 34.8425 59.5953 34.3063 59.4438 33.5638C59.2924 32.8213 59.2098 31.7488 59.2098 30.36V12.1825L69.4659 36.63H70.0716L79.2263 12.7325V32.5738C79.2263 33.4813 79.1437 34.1688 78.9923 34.6225C78.8409 35.0763 78.538 35.3788 78.0975 35.53C77.657 35.6813 76.9962 35.7775 76.1426 35.8325V36.5888C76.8034 36.5338 77.657 36.5063 78.7307 36.4925C79.7908 36.4788 80.9334 36.4788 82.1448 36.4788C83.2599 36.4788 84.3613 36.4788 85.435 36.4925C86.5088 36.5063 87.4037 36.5338 88.1195 36.5888V35.8325C87.3073 35.7775 86.7016 35.6813 86.2886 35.53C85.8756 35.3788 85.614 35.0763 85.4763 34.6225C85.3387 34.1688 85.2698 33.4813 85.2698 32.5738V13.75C85.2698 12.815 85.3387 12.1275 85.4763 11.6875C85.614 11.2475 85.8893 10.945 86.2886 10.78C86.6878 10.615 87.3073 10.5188 88.1195 10.4913V9.72125C87.4037 9.74875 86.5226 9.77625 85.435 9.80375C84.375 9.8175 83.2737 9.83125 82.1586 9.83125Z" fill="#1B3C74"/>
<path d="M95.87 24.86H106.525C106.525 21.8762 105.892 19.7175 104.626 18.4112C103.359 17.0912 101.611 16.4312 99.3805 16.4312C97.5771 16.4312 95.9802 16.8162 94.576 17.5862C93.1718 18.3562 92.0705 19.525 91.272 21.0925C90.4736 22.66 90.0743 24.6262 90.0743 26.9775C90.0743 29.2737 90.446 31.185 91.1894 32.67C91.9328 34.1687 92.9653 35.2687 94.2869 36.0112C95.6085 36.74 97.1228 37.1112 98.8436 37.1112C100.262 37.1112 101.473 36.8225 102.492 36.245C103.51 35.6675 104.336 34.9112 104.997 34.0037C105.658 33.0962 106.14 32.1612 106.443 31.1987L105.754 30.965C104.97 32.23 104.13 33.055 103.221 33.4262C102.327 33.8112 101.487 33.99 100.73 33.99C99.9449 33.99 99.174 33.7425 98.4168 33.2475C97.6597 32.7525 97.0264 31.9687 96.5308 30.8687C96.0352 29.7825 95.7874 28.3662 95.7874 26.62C95.7874 26.2625 95.7874 25.9187 95.8012 25.6025C95.8287 25.3687 95.8425 25.1075 95.87 24.86ZM99.1465 17.2425C99.7797 17.2425 100.289 17.5587 100.661 18.1912C101.046 18.8237 101.322 19.6625 101.501 20.7212C101.68 21.7662 101.748 22.9212 101.735 24.1587H95.7874C95.9251 21.7525 96.283 19.9925 96.8888 18.92C97.5083 17.7925 98.2654 17.2425 99.1465 17.2425Z" fill="#1B3C74"/>
<path d="M127.423 32.4225V6.875C126.638 7.05375 125.771 7.19125 124.835 7.27375C123.899 7.37 122.908 7.41125 121.875 7.41125C121.118 7.41125 120.333 7.37 119.521 7.30125V8.09875C120.457 8.09875 121.104 8.37375 121.434 8.91C121.779 9.46 121.944 10.2987 121.944 11.44V17.9163C121.572 17.5313 121.159 17.215 120.677 17.0088C119.824 16.6375 118.846 16.4588 117.731 16.4588C116.107 16.4588 114.661 16.8438 113.381 17.6C112.101 18.3563 111.096 19.4975 110.366 20.9963C109.637 22.5088 109.265 24.4063 109.265 26.7025C109.265 29.1363 109.595 31.1163 110.256 32.6425C110.917 34.1688 111.839 35.31 113.009 36.0388C114.18 36.7675 115.529 37.1388 117.015 37.1388C118.378 37.1388 119.493 36.795 120.347 36.0938C121.063 35.5025 121.572 34.6363 121.958 33.5775V36.9875C122.742 36.7813 123.596 36.6438 124.518 36.575C125.441 36.4925 126.432 36.465 127.506 36.465C128.29 36.465 129.075 36.5063 129.86 36.575V35.7775C128.951 35.7775 128.318 35.5025 127.96 34.9663C127.602 34.4025 127.423 33.5638 127.423 32.4225ZM120.884 34.4713C120.196 35.1588 119.425 35.4888 118.571 35.4888C117.855 35.4888 117.236 35.2138 116.685 34.65C116.134 34.0863 115.721 33.1788 115.432 31.9C115.143 30.6213 114.992 28.9025 114.992 26.7575C114.964 23.6225 115.336 21.2988 116.093 19.7863C116.85 18.2875 117.883 17.5313 119.177 17.5313C119.783 17.5313 120.361 17.6688 120.911 17.93C121.324 18.1363 121.669 18.4663 121.958 18.8788V31.8863C121.861 32.9588 121.531 33.825 120.884 34.4713Z" fill="#1B3C74"/>
<path d="M136.385 13.0213C137.445 13.0213 138.285 12.76 138.918 12.2375C139.537 11.715 139.854 11 139.854 10.0925C139.854 9.18501 139.537 8.47001 138.918 7.94751C138.298 7.42501 137.459 7.17751 136.385 7.17751C135.325 7.17751 134.485 7.43876 133.852 7.94751C133.232 8.47001 132.916 9.18501 132.916 10.0925C132.916 11 133.232 11.715 133.852 12.2375C134.485 12.76 135.325 13.0213 136.385 13.0213Z" fill="#1B3C74"/>
<path d="M139.345 33.0687V16.555C138.56 16.7337 137.707 16.8712 136.784 16.9537C135.862 17.05 134.871 17.0912 133.797 17.0912C133.04 17.0912 132.255 17.05 131.443 16.9812V17.7787C132.379 17.7787 133.026 18.0537 133.356 18.59C133.7 19.14 133.866 19.9787 133.866 21.12V33.0687C133.866 34.1275 133.687 34.8562 133.315 35.2275C132.943 35.6125 132.324 35.7912 131.429 35.7912V36.5887C131.938 36.5612 132.696 36.5337 133.714 36.4925C134.733 36.4512 135.724 36.4375 136.715 36.4375C137.707 36.4375 138.684 36.4512 139.648 36.4925C140.611 36.5337 141.327 36.5612 141.781 36.5887V35.7912C140.9 35.7912 140.267 35.5987 139.895 35.2275C139.537 34.8425 139.345 34.1275 139.345 33.0687Z" fill="#1B3C74"/>
<path d="M162.913 33.0687V22.8525C162.913 21.56 162.817 20.5425 162.624 19.7725C162.431 19.0162 162.142 18.3975 161.729 17.9162C161.344 17.4625 160.821 17.105 160.16 16.83C159.485 16.5687 158.618 16.4312 157.558 16.4312C156.209 16.4312 154.997 16.6925 153.91 17.2287C152.822 17.765 151.955 18.6725 151.322 19.965V16.555C150.537 16.7337 149.683 16.8712 148.761 16.9537C147.839 17.05 146.848 17.0912 145.774 17.0912C145.017 17.0912 144.232 17.05 143.42 16.9812V17.7787C144.356 17.7787 145.003 18.0537 145.333 18.59C145.677 19.14 145.843 19.9787 145.843 21.12V33.0687C145.843 34.1275 145.664 34.8562 145.292 35.2275C144.92 35.6125 144.301 35.7912 143.406 35.7912V36.5887C143.915 36.5612 144.672 36.5337 145.691 36.4925C146.71 36.4512 147.687 36.4375 148.651 36.4375C149.587 36.4375 150.496 36.4512 151.363 36.4925C152.244 36.5337 152.905 36.5612 153.359 36.5887V35.7912C152.629 35.7912 152.093 35.5987 151.776 35.2275C151.459 34.8425 151.308 34.1275 151.308 33.0687V22.5225C151.308 21.2575 151.666 20.2125 152.395 19.3737C153.111 18.535 154.006 18.1225 155.08 18.1225C155.741 18.1225 156.236 18.26 156.567 18.5212C156.897 18.7825 157.117 19.1537 157.255 19.6212C157.379 20.0887 157.448 20.6387 157.448 21.2712V33.0687C157.448 34.1275 157.296 34.8562 156.993 35.2275C156.691 35.6125 156.154 35.7912 155.397 35.7912V36.5887C155.878 36.5612 156.58 36.5337 157.503 36.4925C158.425 36.4512 159.375 36.4375 160.339 36.4375C161.275 36.4375 162.225 36.4512 163.188 36.4925C164.152 36.5337 164.868 36.5612 165.35 36.5887V35.7912C164.469 35.7912 163.835 35.5987 163.464 35.2275C163.092 34.8425 162.913 34.1275 162.913 33.0687Z" fill="#1B3C74"/>
<path d="M174.656 33.0687V16.555C173.871 16.7337 173.018 16.8712 172.095 16.9537C171.173 17.05 170.182 17.0912 169.108 17.0912C168.351 17.0912 167.566 17.05 166.754 16.9812V17.7787C167.69 17.7787 168.337 18.0537 168.667 18.59C169.012 19.14 169.177 19.9787 169.177 21.12V33.0687C169.177 34.1275 168.998 34.8562 168.626 35.2275C168.254 35.6125 167.635 35.7912 166.74 35.7912V36.5887C167.249 36.5612 168.007 36.5337 169.025 36.4925C170.044 36.4512 171.035 36.4375 172.026 36.4375C173.018 36.4375 173.995 36.4512 174.959 36.4925C175.922 36.5337 176.638 36.5612 177.093 36.5887V35.7912C176.211 35.7912 175.578 35.5987 175.207 35.2275C174.835 34.8425 174.656 34.1275 174.656 33.0687Z" fill="#1B3C74"/>
<path d="M171.682 13.0213C172.742 13.0213 173.582 12.76 174.215 12.2375C174.835 11.715 175.151 11 175.151 10.0925C175.151 9.18501 174.835 8.47001 174.215 7.94751C173.596 7.42501 172.756 7.17751 171.682 7.17751C170.609 7.17751 169.783 7.43876 169.149 7.94751C168.53 8.47001 168.213 9.18501 168.213 10.0925C168.213 11 168.53 11.715 169.149 12.2375C169.783 12.76 170.622 13.0213 171.682 13.0213Z" fill="#1B3C74"/>
<path d="M198.899 35.035C198.596 34.6775 198.307 34.2787 198.018 33.825L191.644 23.1687L194.067 20.6525C194.879 19.8687 195.677 19.2225 196.462 18.7137C197.247 18.205 198.031 17.875 198.816 17.7237V16.9675C198.513 16.995 198.1 17.0087 197.605 17.0225C197.095 17.0362 196.558 17.05 195.994 17.0637C195.43 17.0775 194.879 17.0775 194.383 17.0775C193.805 17.0775 193.089 17.0637 192.249 17.0362C191.41 17.0087 190.639 16.9812 189.937 16.9537V17.71C190.818 17.7375 191.534 17.9437 192.084 18.315C192.635 18.7 192.897 19.195 192.897 19.8275C192.897 20.46 192.47 21.1887 191.602 21.9862L188.711 24.7912C188.381 25.1487 188.023 25.3825 187.624 25.5062C187.28 25.6162 186.867 25.685 186.426 25.74V6.875C185.642 7.05375 184.774 7.19125 183.838 7.27375C182.902 7.37 181.911 7.41125 180.878 7.41125C180.121 7.41125 179.336 7.37 178.524 7.30125V8.09875C179.46 8.09875 180.107 8.37375 180.438 8.91C180.768 9.44625 180.947 10.2987 180.947 11.44V33.0687C180.947 34.1275 180.768 34.8562 180.397 35.2275C180.025 35.6125 179.405 35.7912 178.51 35.7912V36.5887C179.02 36.5612 179.777 36.5337 180.768 36.4925C181.773 36.4512 182.764 36.4375 183.756 36.4375C184.719 36.4375 185.655 36.4512 186.591 36.4925C187.514 36.5337 188.216 36.5612 188.698 36.5887V35.7912C187.858 35.7912 187.28 35.5987 186.936 35.2275C186.591 34.8425 186.426 34.1275 186.426 33.0687V26.5787C186.798 26.62 187.156 26.675 187.39 26.785C187.679 26.9225 187.982 27.2387 188.285 27.72L192.043 34.5125C192.277 34.8975 192.291 35.2 192.126 35.4475C191.947 35.695 191.602 35.805 191.107 35.805V36.6025C191.561 36.575 192.263 36.5475 193.199 36.5062C194.135 36.465 195.072 36.4512 196.008 36.4512C196.765 36.4512 197.522 36.465 198.293 36.5062C199.05 36.5475 199.628 36.575 200 36.6025V35.805C199.573 35.64 199.202 35.3925 198.899 35.035Z" fill="#1B3C74"/>
<path d="M22.0264 44C34.1913 44 44.0529 34.1503 44.0529 22C44.0529 9.84974 34.1913 0 22.0264 0C9.86157 0 0 9.84974 0 22C0 34.1503 9.86157 44 22.0264 44Z" fill="#2AA7FF"/>
<path d="M22.7561 21.5875L27.0925 21.5737L27.1063 25.905C27.1063 26.4412 27.5468 26.8812 28.0837 26.8812L31.4428 26.8675C31.9796 26.8675 32.4202 26.4275 32.4202 25.8912L32.4064 21.56L36.7429 21.5462C37.2798 21.5462 37.7203 21.1062 37.7203 20.57L37.7065 17.215C37.7065 16.6787 37.266 16.2387 36.7291 16.2387L32.3926 16.2525L32.3789 11.9212C32.3789 11.385 31.9383 10.945 31.4015 10.945L28.0424 10.9587C27.5055 10.9587 27.065 11.3987 27.065 11.935L27.0788 16.2662L22.7423 16.28C22.2054 16.28 21.7649 16.72 21.7649 17.2562L21.7787 20.6112C21.7787 21.1475 22.2192 21.5875 22.7561 21.5875Z" fill="white"/>
<path d="M11.1096 16.9675H12.4174V18.2737C12.4174 18.4387 12.555 18.5625 12.7202 18.5625H13.739C13.9042 18.5625 14.0281 18.425 14.0281 18.26V16.9537H15.3359C15.5011 16.9537 15.625 16.8162 15.625 16.6512V15.6337C15.625 15.4687 15.4873 15.345 15.3221 15.345H14.0143V14.0388C14.0143 13.8738 13.8766 13.75 13.7114 13.75H12.6927C12.5275 13.75 12.4036 13.8875 12.4036 14.0525V15.3588H11.0958C10.9306 15.3588 10.8067 15.4963 10.8067 15.6613V16.6788C10.8205 16.8438 10.9444 16.9675 11.1096 16.9675Z" fill="white"/>
<path d="M17.4008 8.95125H19.0804V10.6287C19.0804 10.835 19.2456 11.0138 19.4658 11.0138H20.7736C20.9801 11.0138 21.1591 10.8488 21.1591 10.6287V8.95125H22.8386C23.0451 8.95125 23.2241 8.78625 23.2241 8.56625V7.26C23.2241 7.05375 23.0589 6.875 22.8386 6.875H21.1591V5.1975C21.1591 4.99125 20.9939 4.8125 20.7736 4.8125H19.4658C19.2593 4.8125 19.0804 4.9775 19.0804 5.1975V6.875H17.4008C17.1943 6.875 17.0154 7.04 17.0154 7.26V8.56625C17.0154 8.7725 17.1943 8.95125 17.4008 8.95125Z" fill="white"/>
<path d="M33.136 32.56C32.5991 32.01 29.0198 33.6875 26.2252 33.66C23.4443 33.6325 19.9614 33.5913 18.5985 32.2025C18.5985 32.2025 18.7637 32.2713 19.1217 32.34C19.1905 32.3538 19.2731 32.3675 19.3557 32.395C19.3832 32.395 19.397 32.4088 19.4245 32.4088C19.4934 32.4225 19.5622 32.4363 19.631 32.45C19.6586 32.45 19.6999 32.4638 19.7274 32.4638C19.7962 32.4775 19.8788 32.4913 19.9476 32.505C19.9889 32.505 20.0165 32.5188 20.0578 32.5188C20.1679 32.5325 20.278 32.5463 20.4019 32.56C20.4157 32.56 20.4157 32.56 20.4157 32.56C20.5396 32.5738 20.6773 32.5875 20.8287 32.6013C20.87 32.6013 20.9113 32.615 20.9664 32.615C21.0765 32.6288 21.1866 32.6288 21.2968 32.6425C21.3518 32.6425 21.4069 32.6425 21.462 32.6563C21.5721 32.6563 21.696 32.67 21.8199 32.67C21.875 32.67 21.93 32.67 21.9851 32.67C22.1641 32.67 22.3568 32.6838 22.5495 32.6838C22.8662 32.6838 23.1552 32.6838 23.4306 32.6838C23.582 32.6838 23.7197 32.6838 23.8436 32.67C24.2153 32.6563 24.5319 32.6425 24.821 32.6013C25.1514 32.5738 25.4267 32.5188 25.647 32.4638C26.1013 32.34 26.3353 32.175 26.3353 31.9413C26.3353 31.3913 25.7434 30.6488 24.6971 30.6213C21.104 30.5663 19.5071 28.7238 17.2219 27.6925C16.3271 27.2938 15.3359 27.005 14.0831 27.005C13.9454 27.005 13.8215 27.005 13.6839 27.0188C13.6426 27.0188 13.6013 27.0325 13.56 27.0325C13.4774 27.0325 13.381 27.0463 13.2984 27.06C13.2434 27.06 13.2021 27.0738 13.147 27.0738C13.0644 27.0875 12.9956 27.1013 12.913 27.115C12.8579 27.1288 12.8166 27.1288 12.7615 27.1425C12.6789 27.1563 12.6101 27.17 12.5275 27.1838C12.4724 27.1975 12.4311 27.2113 12.3761 27.225C12.2935 27.2388 12.2246 27.2663 12.142 27.28C12.1007 27.2938 12.0457 27.3075 12.0044 27.3213C11.9218 27.3488 11.8392 27.3763 11.7566 27.4038C11.7153 27.4175 11.6877 27.4313 11.6464 27.445C11.5363 27.4863 11.4124 27.5275 11.3023 27.5825C11.2885 27.5825 11.2885 27.5963 11.2747 27.5963C11.1646 27.6375 11.0682 27.6788 10.9581 27.7338C10.9168 27.7475 10.8893 27.775 10.848 27.7888C10.7791 27.83 10.6965 27.8575 10.6277 27.8988C10.5864 27.9263 10.5451 27.94 10.5038 27.9675C10.4488 27.995 10.3937 28.0225 10.3386 28.05C9.52639 28.545 8.50767 29.3425 8.16351 29.8375C7.33752 31.2125 7.68168 33.0825 9.12716 34.045C10.8617 35.1725 12.9818 36.3688 15.0055 37.2488C15.0192 37.2488 15.0192 37.2625 15.033 37.2625C15.0881 37.29 15.1294 37.3038 15.1844 37.3313C15.2808 37.3725 15.3909 37.4138 15.4873 37.455C15.6112 37.51 15.7351 37.5513 15.859 37.6063C15.9554 37.6475 16.0517 37.6888 16.1481 37.7163C16.272 37.7575 16.3959 37.8125 16.506 37.8538C16.6024 37.8813 16.6988 37.9225 16.7951 37.95C16.919 37.9913 17.0291 38.0325 17.153 38.06C17.2494 38.0875 17.332 38.115 17.4284 38.1425C17.5523 38.1838 17.6624 38.2113 17.7725 38.2388C17.8551 38.2663 17.9377 38.28 18.0341 38.3075C18.158 38.335 18.2681 38.3625 18.3783 38.3763C18.4609 38.39 18.5297 38.4038 18.6123 38.4175C18.7362 38.445 18.8463 38.4588 18.9702 38.4725C19.0253 38.4863 19.0941 38.4863 19.1492 38.5C19.3282 38.5138 19.4934 38.5275 19.6448 38.5275C20.1128 38.5275 20.6222 38.5138 21.1591 38.4863C21.9576 38.4313 22.8111 38.3213 23.6921 38.17C24.2841 38.06 24.8761 37.9225 25.4818 37.7575C27.6018 37.18 29.7907 36.2588 31.6905 34.8563C32.2412 34.4575 32.7505 34.0175 33.2461 33.5363C33.2736 33.495 33.6729 33.11 33.136 32.56Z" fill="white"/>
</svg>
