<svg xmlns="http://www.w3.org/2000/svg" width="50" height="50" viewBox="0 0 50 50" fill="none"><path d="M25 50C38.8071 50 50 38.8071 50 25C50 11.1929 38.8071 0 25 0C11.1929 0 0 11.1929 0 25C0 38.8071 11.1929 50 25 50Z" fill="#2AA7FF"></path><rect opacity="0.01" x="13" y="13" width="24" height="24" fill="white"></rect><path fill-rule="evenodd" clip-rule="evenodd" d="M25 16C25.8284 16 26.5 16.6716 26.5 17.5V23.5H32.5C33.3284 23.5 34 24.1716 34 25C34 25.8284 33.3284 26.5 32.5 26.5H26.5V32.5C26.5 33.3284 25.8284 34 25 34C24.1716 34 23.5 33.3284 23.5 32.5V26.5H17.5C16.6716 26.5 16 25.8284 16 25C16 24.1716 16.6716 23.5 17.5 23.5H23.5V17.5C23.5 16.6716 24.1716 16 25 16Z" fill="white"></path></svg>